<svg width="250" height="76" viewBox="0 0 250 76" fill="none" xmlns="http://www.w3.org/2000/svg">
<g clip-path="url(#clip0)">
<path d="M68.0212 65.5254C68.0212 66.3745 67.8668 67.0864 67.5495 67.6696C67.2322 68.2528 66.8119 68.7159 66.2801 69.0761C65.7484 69.4364 65.1309 69.6937 64.4362 69.8566C63.7415 70.0196 63.0125 70.1053 62.2663 70.1053H60.5252V75.5772H57.026V61.057H62.3521C63.1411 61.057 63.8873 61.1342 64.5734 61.2886C65.2595 61.443 65.8599 61.7002 66.3745 62.0433C66.8891 62.395 67.2922 62.8495 67.5838 63.4156C67.8754 63.9902 68.0212 64.6935 68.0212 65.5254ZM64.5134 65.5426C64.5134 65.1995 64.4448 64.9251 64.3075 64.7021C64.1703 64.4877 63.9902 64.3161 63.75 64.1875C63.5185 64.0674 63.2526 63.9816 62.961 63.9388C62.6694 63.8959 62.3606 63.8787 62.0519 63.8787H60.5167V67.3008H61.9918C62.3177 67.3008 62.6351 67.2751 62.9353 67.215C63.2354 67.1636 63.5013 67.0692 63.7415 66.932C63.9816 66.7948 64.1703 66.6147 64.3075 66.3917C64.4448 66.1687 64.5134 65.8856 64.5134 65.5426Z" fill="#231F20"/>
<path d="M78.9135 75.5601L75.7659 69.8052H74.5737V75.5601H71.1517V61.057H76.6836C77.3783 61.057 78.0559 61.1256 78.7248 61.2714C79.3852 61.4172 79.977 61.6574 80.5088 62.0004C81.0319 62.3435 81.4522 62.7895 81.7695 63.3555C82.0869 63.913 82.2412 64.6077 82.2412 65.4482C82.2412 66.4345 81.9754 67.2579 81.4436 67.9269C80.9119 68.5959 80.1743 69.0761 79.2308 69.3592L83.0217 75.5686H78.9135V75.5601ZM78.7763 65.5083C78.7763 65.1652 78.7077 64.8908 78.5619 64.6763C78.4161 64.4619 78.236 64.299 78.0044 64.1875C77.7814 64.076 77.5241 63.9902 77.2411 63.9559C76.958 63.913 76.6922 63.8959 76.4263 63.8959H74.5566V67.2751H76.2205C76.5121 67.2751 76.8037 67.2493 77.1039 67.2064C77.404 67.155 77.6785 67.0692 77.9272 66.9491C78.1759 66.8291 78.3732 66.649 78.5361 66.4174C78.6991 66.1858 78.7763 65.8771 78.7763 65.5083Z" fill="#231F20"/>
<path d="M100.878 68.2528C100.878 69.4021 100.681 70.4484 100.286 71.4004C99.8919 72.3524 99.343 73.1586 98.6398 73.8362C97.9365 74.5137 97.096 75.0369 96.1268 75.4057C95.1576 75.7745 94.1027 75.9632 92.9706 75.9632C91.8385 75.9632 90.7921 75.7831 89.823 75.4057C88.8624 75.0369 88.0305 74.5137 87.3272 73.8362C86.6239 73.1586 86.075 72.3438 85.6805 71.4004C85.2859 70.4484 85.0887 69.4021 85.0887 68.2528C85.0887 67.0949 85.2859 66.04 85.6805 65.1052C86.075 64.1703 86.6239 63.3727 87.3272 62.7209C88.0305 62.069 88.8624 61.563 89.823 61.2028C90.7836 60.8512 91.8299 60.6711 92.9706 60.6711C94.1027 60.6711 95.1576 60.8512 96.1268 61.2028C97.096 61.563 97.9365 62.0605 98.6398 62.7209C99.343 63.3727 99.8919 64.1703 100.286 65.1052C100.681 66.04 100.878 67.0864 100.878 68.2528ZM97.1303 68.2528C97.1303 67.6267 97.0273 67.0349 96.8215 66.4946C96.6157 65.9457 96.3326 65.4825 95.9724 65.088C95.6122 64.7021 95.1748 64.3933 94.6602 64.1703C94.1456 63.9473 93.5881 63.8358 92.9706 63.8358C92.3531 63.8358 91.7956 63.9473 91.2896 64.1703C90.7836 64.3933 90.3462 64.7021 89.9774 65.088C89.6086 65.474 89.3255 65.9457 89.1283 66.4946C88.931 67.0435 88.8281 67.6267 88.8281 68.2528C88.8281 68.9046 88.931 69.5136 89.1369 70.0625C89.3427 70.6114 89.6257 71.0917 89.9859 71.4862C90.3462 71.8807 90.7836 72.1895 91.2896 72.421C91.7956 72.644 92.3531 72.7555 92.9706 72.7555C93.5881 72.7555 94.1456 72.644 94.6516 72.421C95.1576 72.198 95.595 71.8893 95.9638 71.4862C96.3326 71.0917 96.6157 70.6114 96.8215 70.0625C97.0273 69.505 97.1303 68.9046 97.1303 68.2528Z" fill="#231F20"/>
<path d="M111.162 75.5601H107.662L102.173 61.057H106.11L109.472 71.3404H109.558L112.894 61.057H116.762L111.162 75.5601Z" fill="#231F20"/>
<path d="M118.966 75.5601V61.057H122.491V75.5601H118.966Z" fill="#231F20"/>
<path d="M134.164 64.8307C133.864 64.4448 133.469 64.1446 132.989 63.9216C132.5 63.6986 132.037 63.5871 131.583 63.5871C131.351 63.5871 131.119 63.6043 130.879 63.6471C130.639 63.69 130.425 63.7672 130.236 63.8787C130.047 63.9988 129.884 64.1446 129.756 64.3333C129.627 64.522 129.558 64.7535 129.558 65.0366C129.558 65.2853 129.61 65.4911 129.713 65.6541C129.816 65.817 129.962 65.9628 130.167 66.0829C130.365 66.203 130.605 66.3145 130.871 66.4174C131.137 66.5203 131.454 66.6232 131.797 66.7347C132.286 66.8977 132.8 67.0778 133.332 67.2751C133.864 67.4723 134.353 67.7382 134.79 68.0641C135.228 68.39 135.588 68.8017 135.879 69.282C136.162 69.7708 136.308 70.3712 136.308 71.0917C136.308 71.9236 136.154 72.644 135.845 73.253C135.536 73.8619 135.125 74.3593 134.61 74.7624C134.087 75.157 133.495 75.4486 132.826 75.6458C132.157 75.8431 131.471 75.9289 130.759 75.9289C129.721 75.9289 128.718 75.7488 127.749 75.3885C126.78 75.0283 125.973 74.5137 125.33 73.8447L127.62 71.5119C127.972 71.9493 128.444 72.3181 129.027 72.6097C129.61 72.9013 130.185 73.0471 130.759 73.0471C131.017 73.0471 131.274 73.0214 131.514 72.9614C131.763 72.9099 131.977 72.8156 132.157 72.6955C132.337 72.5754 132.492 72.4125 132.595 72.2066C132.706 72.0008 132.758 71.7521 132.758 71.469C132.758 71.1946 132.689 70.963 132.552 70.7743C132.414 70.5856 132.217 70.4055 131.969 70.2511C131.72 70.0968 131.402 69.951 131.025 69.8223C130.648 69.6937 130.219 69.5564 129.747 69.4021C129.284 69.2563 128.829 69.0761 128.383 68.8703C127.937 68.6645 127.543 68.4072 127.2 68.0813C126.848 67.7639 126.574 67.3694 126.359 66.9148C126.145 66.4603 126.042 65.9028 126.042 65.2424C126.042 64.4362 126.205 63.7501 126.531 63.1754C126.857 62.6008 127.286 62.1291 127.817 61.7603C128.349 61.3915 128.95 61.1256 129.619 60.9541C130.287 60.7825 130.965 60.6968 131.651 60.6968C132.475 60.6968 133.306 60.8512 134.164 61.1513C135.022 61.4515 135.768 61.8975 136.411 62.4807L134.164 64.8307Z" fill="#231F20"/>
<path d="M139.636 75.5601V61.057H143.161V75.5601H139.636Z" fill="#231F20"/>
<path d="M162.295 68.2528C162.295 69.4021 162.098 70.4484 161.704 71.4004C161.309 72.3524 160.76 73.1586 160.057 73.8362C159.354 74.5137 158.513 75.0369 157.544 75.4057C156.575 75.7745 155.52 75.9632 154.388 75.9632C153.256 75.9632 152.209 75.7831 151.24 75.4057C150.28 75.0369 149.448 74.5137 148.744 73.8362C148.041 73.1586 147.492 72.3438 147.098 71.4004C146.703 70.4484 146.506 69.4021 146.506 68.2528C146.506 67.0949 146.703 66.04 147.098 65.1052C147.492 64.1703 148.041 63.3727 148.744 62.7209C149.448 62.069 150.28 61.563 151.24 61.2028C152.201 60.8512 153.247 60.6711 154.388 60.6711C155.52 60.6711 156.575 60.8512 157.544 61.2028C158.513 61.563 159.354 62.0605 160.057 62.7209C160.76 63.3727 161.309 64.1703 161.704 65.1052C162.098 66.04 162.295 67.0864 162.295 68.2528ZM158.547 68.2528C158.547 67.6267 158.445 67.0349 158.239 66.4946C158.033 65.9457 157.75 65.4825 157.39 65.088C157.029 64.7021 156.592 64.3933 156.077 64.1703C155.563 63.9473 155.005 63.8358 154.388 63.8358C153.77 63.8358 153.213 63.9473 152.707 64.1703C152.201 64.3933 151.763 64.7021 151.395 65.088C151.026 65.474 150.743 65.9457 150.545 66.4946C150.348 67.0435 150.245 67.6267 150.245 68.2528C150.245 68.9046 150.348 69.5136 150.554 70.0625C150.76 70.6114 151.043 71.0917 151.403 71.4862C151.763 71.8807 152.201 72.1895 152.707 72.421C153.213 72.6526 153.77 72.7555 154.388 72.7555C155.005 72.7555 155.563 72.644 156.069 72.421C156.575 72.198 157.012 71.8893 157.381 71.4862C157.75 71.0831 158.033 70.6114 158.239 70.0625C158.445 69.505 158.547 68.9046 158.547 68.2528Z" fill="#231F20"/>
<path d="M174.852 75.5601L169.011 66.0743H168.951L169.037 75.5601H165.632V61.057H169.628L175.443 70.5256H175.503L175.418 61.057H178.814V75.5601H174.852Z" fill="#231F20"/>
<path d="M190.504 64.8307C190.204 64.4448 189.809 64.1446 189.329 63.9216C188.84 63.6986 188.377 63.5871 187.922 63.5871C187.691 63.5871 187.459 63.6043 187.219 63.6471C186.979 63.69 186.765 63.7672 186.576 63.8787C186.387 63.9988 186.224 64.1446 186.096 64.3333C185.967 64.522 185.898 64.7535 185.898 65.0366C185.898 65.2853 185.95 65.4911 186.053 65.6541C186.156 65.817 186.301 65.9628 186.507 66.0829C186.705 66.203 186.945 66.3145 187.211 66.4174C187.485 66.5203 187.794 66.6232 188.137 66.7347C188.626 66.8977 189.14 67.0778 189.672 67.2751C190.204 67.4723 190.693 67.7382 191.13 68.0641C191.567 68.39 191.928 68.8017 192.219 69.282C192.502 69.7708 192.648 70.3712 192.648 71.0917C192.648 71.9236 192.494 72.644 192.185 73.253C191.876 73.8619 191.465 74.3593 190.95 74.7624C190.427 75.157 189.835 75.4486 189.166 75.6458C188.497 75.8431 187.811 75.9289 187.099 75.9289C186.061 75.9289 185.058 75.7488 184.089 75.3885C183.12 75.0283 182.313 74.5137 181.67 73.8447L183.96 71.5119C184.312 71.9493 184.783 72.3181 185.367 72.6097C185.95 72.9013 186.524 73.0471 187.099 73.0471C187.356 73.0471 187.614 73.0214 187.854 72.9614C188.103 72.9099 188.317 72.8156 188.497 72.6955C188.677 72.5754 188.832 72.4125 188.934 72.2066C189.046 72.0008 189.097 71.7521 189.097 71.469C189.097 71.1946 189.029 70.963 188.892 70.7743C188.754 70.5856 188.557 70.4055 188.308 70.2511C188.06 70.0968 187.742 69.951 187.365 69.8223C186.988 69.6937 186.559 69.5564 186.087 69.4021C185.624 69.2563 185.169 69.0761 184.723 68.8703C184.277 68.6645 183.883 68.4072 183.54 68.0813C183.188 67.7639 182.914 67.3694 182.699 66.9148C182.485 66.4603 182.382 65.9028 182.382 65.2424C182.382 64.4362 182.545 63.7501 182.871 63.1754C183.197 62.6008 183.626 62.1291 184.157 61.7603C184.689 61.3915 185.289 61.1256 185.958 60.9541C186.627 60.7825 187.305 60.6968 187.991 60.6968C188.814 60.6968 189.646 60.8512 190.504 61.1513C191.362 61.4515 192.108 61.8975 192.751 62.4807L190.504 64.8307Z" fill="#231F20"/>
<path d="M48.6723 22.2563C48.3293 22.2563 47.2572 22.2563 47.2572 22.2563C44.3755 22.2563 42.2913 24.2204 42.2913 27.085C42.2913 29.272 42.926 31.7421 45.7563 31.7421C48.4065 31.7421 48.9382 29.778 48.9382 27.6339V22.4879C48.9382 22.4793 49.0154 22.2563 48.6723 22.2563ZM59.7362 33.4145C60.0535 33.4145 60.6882 33.4145 61.0141 33.4145C61.4515 33.4145 61.3657 33.7319 61.3657 33.7319C61.3657 33.7319 61.3657 36.0304 61.3657 36.485C61.3657 36.9309 60.9455 36.7851 60.9455 36.7851C58.9128 36.7851 49.976 36.7851 49.976 36.7851C49.976 36.7851 49.753 36.8195 49.6758 36.485C49.5214 35.8246 49.307 35.0698 49.2127 34.4952C49.1012 33.8948 48.7066 34.4866 48.7066 34.4866C46.451 36.2877 44.0152 37.6256 40.8933 37.6256C35.6444 37.6256 31.7078 34.3237 31.7078 29.1176C31.7078 22.608 35.876 18.9115 41.022 18.9115L48.8439 18.7142C48.8439 18.7142 48.9382 18.697 48.9382 18.3883C48.9382 18.0881 48.9382 17.5135 48.9382 17.5135C48.9382 15.2149 47.6689 14.2458 45.1216 14.2458C41.8711 14.2458 40.3616 15.4293 38.8521 17.2905C38.8521 17.2905 38.7492 17.5049 38.4404 17.3762C38.1317 17.239 35.3443 16.2613 35.3443 16.2613C35.3443 16.2613 35.1041 16.2441 35.2328 15.9096C35.37 15.5666 38.7149 7.34159 38.7149 7.34159C38.7149 7.34159 38.7406 7.04999 39.0151 7.16148C39.4267 7.30728 41.5881 7.96768 41.9654 8.10491C42.3085 8.25071 42.1627 8.52516 42.1627 8.52516C42.1627 8.52516 42.0683 8.91111 41.9311 9.21129C41.6567 9.87169 42.1112 9.58867 42.1112 9.58867C44.2725 8.76531 46.4681 8.42225 48.7495 8.42225C55.2249 8.42225 59.496 11.1153 59.496 17.7279V32.9171C59.5132 32.8999 59.4532 33.4145 59.7362 33.4145ZM60.3794 10.4806C64.7106 9.2456 68.5873 6.3467 70.4055 2.28996C70.4055 2.28996 70.4398 1.98978 70.7486 2.05839C71.0573 2.127 73.2529 2.50437 73.7332 2.59872C74.0849 2.66733 73.9305 2.87317 73.9305 2.87317C73.6646 4.20255 73.5789 5.80638 73.5789 7.0071C73.5789 7.0071 73.5789 8.79104 73.5789 9.03119C73.5789 9.33137 73.8018 9.25418 73.8018 9.25418C73.8018 9.25418 78.2274 9.25418 78.5018 9.25418C78.7763 9.25418 78.6734 9.51148 78.6734 9.51148C78.6734 9.51148 77.9701 12.9764 77.8843 13.4053C77.8157 13.7483 77.5756 13.6368 77.5756 13.6368C77.5756 13.6368 74.1363 13.6368 73.8362 13.6368C73.5274 13.6368 73.5789 13.8427 73.5789 13.8427V29.8381C73.5789 31.5706 75.0798 31.905 75.946 31.905C76.8208 31.905 76.9752 31.9222 77.6528 31.5877C77.6528 31.5877 77.8929 31.3647 77.9958 31.6992C78.0902 31.9737 79.0422 34.2379 79.1537 34.4695C79.2737 34.7611 79.025 34.8297 79.025 34.8297C75.3113 37.497 74.9768 37.6171 70.2854 37.6171C65.028 37.6171 63.0039 35.0955 63.0039 30.224V13.8255C63.0039 13.8255 63.0725 13.6197 62.8066 13.6197C62.2234 13.6197 60.3623 13.6197 60.3623 13.6197C60.3623 13.6197 60.1736 13.7226 60.1736 13.3624C60.1736 12.6763 60.1736 11.0553 60.1736 10.7808C60.1822 10.5321 60.3794 10.4806 60.3794 10.4806ZM138.298 22.9854C138.298 13.9542 145.4 8.40509 154.594 8.40509C163.839 8.40509 170.949 13.9542 170.949 22.9854C170.949 32.0594 163.839 37.6171 154.594 37.6171C145.4 37.6171 138.298 32.0594 138.298 22.9854ZM148.873 19.0144C148.873 23.0454 150.606 33.3631 156.438 33.3631C159.551 33.3631 160.374 30.0525 160.374 27.0249C160.374 22.9854 158.633 12.6763 152.801 12.6763C148.873 12.6763 148.873 16.9303 148.873 19.0144ZM203.429 36.7766H189.209C189.209 36.7766 188.969 36.8194 188.969 36.5707C188.969 36.322 188.969 33.8862 188.969 33.6547C188.969 33.3802 189.278 33.406 189.278 33.406C189.278 33.406 190.727 33.406 190.967 33.406C191.242 33.406 191.164 33.2001 191.164 33.2001V17.5907C191.164 15.9697 189.655 15.1292 188.103 15.1292C186.241 15.1292 184.886 16.1412 183.574 17.2562C183.574 17.2562 183.36 17.3934 183.36 17.6764C183.36 17.9509 183.36 33.2001 183.36 33.2001C183.36 33.2001 183.308 33.406 183.583 33.406C183.849 33.406 185.324 33.406 185.324 33.406C185.324 33.406 185.615 33.303 185.615 33.6547C185.615 33.9977 185.615 36.3649 185.615 36.5707C185.615 36.8194 185.392 36.7766 185.392 36.7766H170.941C170.941 36.7766 170.752 36.8881 170.752 36.5107C170.752 36.1934 170.752 33.9206 170.752 33.6547C170.752 33.3116 170.941 33.406 170.941 33.406C170.941 33.406 172.304 33.406 172.587 33.406C172.853 33.406 172.785 33.1658 172.785 33.1658V14.8033C172.785 14.8033 172.922 14.4602 172.51 14.606C172.09 14.7346 171.044 15.0005 171.044 15.0005C171.044 15.0005 170.761 15.1377 170.761 14.8376C170.761 14.5202 170.761 12.256 170.761 12.0073C170.761 11.7071 171.018 11.7071 171.018 11.7071L183.205 8.48228C183.205 8.48228 183.48 8.34506 183.48 8.65381C183.48 8.97115 183.48 12.2646 183.48 12.6763C183.48 13.1137 183.754 12.7534 183.754 12.7534C186.61 10.575 189.501 8.41367 193.36 8.41367C200.702 8.41367 201.739 13.2938 201.739 16.3814V33.1401C201.739 33.1401 201.705 33.4145 201.945 33.4145C202.194 33.4145 203.463 33.4145 203.463 33.4145C203.463 33.4145 203.695 33.3545 203.695 33.6632C203.695 33.9634 203.695 36.2791 203.695 36.5193C203.712 36.8881 203.429 36.7766 203.429 36.7766ZM218.104 8.48228L205.933 11.8272C205.933 11.8272 205.727 11.8443 205.727 12.0759C205.727 12.316 205.727 14.4945 205.727 14.7947C205.727 15.172 206.079 15.0091 206.079 15.0091C206.079 15.0091 206.86 14.8461 207.554 14.7346C207.897 14.6746 207.812 14.9919 207.812 15.2407C207.812 15.4808 207.812 33.1315 207.812 33.1315C207.812 33.1315 207.897 33.406 207.554 33.406C207.211 33.406 205.839 33.406 205.839 33.406C205.839 33.406 205.607 33.303 205.607 33.6804C205.607 34.0664 205.607 36.1934 205.607 36.5364C205.607 36.8795 205.839 36.768 205.839 36.768C205.839 36.768 219.647 36.768 220.059 36.768C220.402 36.768 220.291 36.5021 220.291 36.5021C220.291 36.5021 220.282 34.1264 220.291 33.6718C220.291 33.303 220.025 33.3974 220.025 33.3974C220.025 33.3974 219.03 33.3974 218.61 33.3974C218.266 33.3974 218.387 33.1572 218.387 33.1572C218.387 33.1572 218.387 8.9883 218.387 8.67954C218.387 8.33648 218.104 8.48228 218.104 8.48228ZM213.704 0C216.182 0 218.833 0.626093 218.833 3.53357C218.833 7.06714 214.278 8.30217 211.388 8.30217C209.064 8.30217 207.451 7.12717 207.451 4.82006C207.46 2.08412 211.217 0 213.704 0ZM96.3326 22.2563C95.9982 22.2563 94.9261 22.2563 94.9261 22.2563C92.0358 22.2563 89.9516 24.2204 89.9516 27.085C89.9516 29.272 90.5949 31.7335 93.4166 31.7335C96.0753 31.7335 96.5985 29.778 96.5985 27.6425V22.4965C96.6071 22.4793 96.6843 22.2563 96.3326 22.2563ZM107.396 33.4145C107.714 33.4145 108.348 33.4145 108.674 33.4145C109.12 33.4145 109.035 33.7319 109.035 33.7319C109.035 33.7319 109.035 36.0304 109.035 36.485C109.035 36.9309 108.614 36.7851 108.614 36.7851C106.582 36.7851 97.6534 36.7851 97.6534 36.7851C97.6534 36.7851 97.4304 36.8195 97.3447 36.485C97.1903 35.8246 96.9759 35.0698 96.8901 34.4866C96.7872 33.8948 96.3841 34.478 96.3841 34.478C94.1284 36.2791 91.6841 37.6171 88.5965 37.6171C83.3305 37.6171 79.3938 34.3065 79.3938 29.1005C79.3938 22.5908 83.5535 18.9029 88.6909 18.9029L96.5213 18.7056C96.5213 18.7056 96.6157 18.6885 96.6157 18.3711C96.6157 18.0624 96.6157 17.4963 96.6157 17.4963C96.6157 15.1978 95.3377 14.2372 92.7991 14.2372C89.5399 14.2372 88.0305 15.4208 86.521 17.2819C86.521 17.2819 86.4266 17.4963 86.1179 17.3591C85.8091 17.2219 83.0217 16.2441 83.0217 16.2441C83.0217 16.2441 82.7816 16.227 82.9188 15.8753C83.056 15.5408 86.4009 7.31586 86.4009 7.31586C86.4009 7.31586 86.4266 7.02426 86.7011 7.13575C87.1128 7.28155 89.2741 7.94195 89.6515 8.07918C90.0031 8.21641 89.8487 8.49943 89.8487 8.49943C89.8487 8.49943 89.7458 8.87681 89.6171 9.18556C89.3427 9.83739 89.8058 9.56294 89.8058 9.56294C91.9586 8.73958 94.1628 8.39651 96.4441 8.39651C102.911 8.39651 107.191 11.0896 107.191 17.7022V32.8828C107.173 32.8914 107.122 33.4145 107.396 33.4145ZM118.606 15.6952C118.606 18.7228 120.399 27.1965 124.73 27.1965C126.874 27.1965 127.732 26.1244 127.732 23.4399C127.732 20.4124 125.939 11.9472 121.608 11.9472C119.472 11.9472 118.606 13.0107 118.606 15.6952ZM123.109 38.1746C122.697 38.6205 122.251 40.4731 122.251 41.7081C122.251 43.1061 122.997 44.6242 124.618 44.6242C126.059 44.6242 126.814 43.9466 126.814 42.5401C126.814 40.07 125.416 39.1952 123.512 38.0373C123.521 38.0459 123.366 37.9001 123.109 38.1746ZM134.627 9.23703C134.027 8.88538 133.967 8.79104 132.758 8.86823C132.063 8.90254 131.72 9.48575 131.72 10.0947C131.72 11.2096 137.157 12.9593 137.157 19.5204C137.157 28.2342 129.052 30.0525 122.131 31.7678C122.131 31.7678 121.351 31.9308 122.148 31.9994C126.78 32.4454 136.231 33.6375 136.231 39.7527C136.231 45.8592 127.852 47.3258 124.378 47.3258C119.301 47.3258 114.103 46.2452 114.103 41.7167C114.103 39.1094 116.908 37.3684 119.327 36.9567C119.327 36.9567 120.038 36.8366 119.327 36.7594C118.503 36.6565 113.906 36.2534 112.319 36.5793C112.319 36.5793 111.959 36.6222 111.856 36.3477C111.711 35.9532 110.767 33.5518 110.698 33.3716C110.518 32.9514 110.879 32.9342 110.879 32.9342C114.284 32.3853 117.277 30.5842 118.709 30.1726C119.472 29.941 118.709 29.8295 118.709 29.8295C113.88 28.989 109.189 25.6956 109.189 19.975C109.189 11.8958 115.776 8.42225 122.08 8.42225C124.987 8.42225 126.642 8.87681 128.195 9.10837C128.195 9.10837 128.418 9.21987 128.529 8.87681C128.667 8.38794 129.121 7.02425 129.121 7.02425C129.833 4.95729 130.871 4.1082 133.984 4.1082C134.576 4.1082 135.21 4.19397 135.819 4.25401C135.819 4.25401 136.128 4.16824 136.068 4.53703C136.008 4.85437 134.996 8.91111 134.936 9.14268C134.816 9.54578 134.627 9.23703 134.627 9.23703ZM237.298 22.2563C236.955 22.2563 235.891 22.2563 235.891 22.2563C233.001 22.2563 230.926 24.2204 230.926 27.085C230.926 29.272 231.543 31.7335 234.382 31.7335C237.041 31.7335 237.564 29.778 237.564 27.6425V22.4965C237.564 22.4793 237.641 22.2563 237.298 22.2563ZM248.353 33.4145C248.662 33.4145 249.314 33.4145 249.623 33.4145C250.069 33.4145 249.991 33.7319 249.991 33.7319C249.991 33.7319 249.991 36.0304 249.991 36.485C249.991 36.9309 249.563 36.7851 249.563 36.7851C247.53 36.7851 238.602 36.7851 238.602 36.7851C238.602 36.7851 238.379 36.8195 238.301 36.485C238.139 35.8246 237.933 35.0698 237.83 34.4866C237.727 33.8948 237.324 34.478 237.324 34.478C235.068 36.2791 232.632 37.6171 229.519 37.6171C224.262 37.6171 220.325 34.3065 220.325 29.1005C220.325 22.5908 224.485 18.9029 229.631 18.9029L237.461 18.7056C237.461 18.7056 237.547 18.6885 237.547 18.3711C237.547 18.0624 237.547 17.4963 237.547 17.4963C237.547 15.1978 236.269 14.2372 233.739 14.2372C230.48 14.2372 228.979 15.4208 227.461 17.2819C227.461 17.2819 227.358 17.4963 227.04 17.3591C226.74 17.2219 223.944 16.2441 223.944 16.2441C223.944 16.2441 223.704 16.227 223.841 15.8753C223.97 15.5408 227.323 7.31586 227.323 7.31586C227.323 7.31586 227.349 7.02426 227.624 7.13575C228.035 7.28155 230.205 7.94195 230.574 8.07918C230.917 8.21641 230.771 8.49943 230.771 8.49943C230.771 8.49943 230.668 8.87681 230.531 9.18556C230.265 9.83739 230.728 9.56294 230.728 9.56294C232.89 8.73958 235.077 8.39651 237.358 8.39651C243.833 8.39651 248.105 11.0896 248.105 17.7022V32.8828C248.139 32.8914 248.087 33.4145 248.353 33.4145ZM12.6076 15.0777C12.6076 15.4551 12.6076 28.8432 12.6076 28.8432C12.6076 31.3047 13.4138 33.3716 16.1927 33.3716C19.649 33.3716 21.1585 31.2446 21.1585 24.9751C21.1585 14.8719 16.0726 14.383 14.2801 14.383L12.9078 14.606C12.9078 14.606 12.6076 14.6832 12.6076 15.0777ZM12.8821 10.9523C15.3522 9.46002 17.3248 8.43082 19.8806 8.43082C26.5361 8.43082 31.7335 13.8084 31.7335 21.8361C31.7335 29.7352 26.7591 37.6342 18.2082 37.6342C16.5615 37.6342 14.4002 37.437 12.8392 36.6393C12.8392 36.6393 12.6076 36.5364 12.6076 36.8195C12.6076 37.0939 12.6076 41.6652 12.6076 41.6652C12.6076 41.6652 12.6076 42.1198 12.9507 42.1198C13.3366 42.1198 16.0383 42.1198 16.0383 42.1198C16.0383 42.1198 16.3556 42.1112 16.3556 42.4886C16.3556 43.0289 16.3556 44.7528 16.3556 45.1045C16.3556 45.3703 16.0726 45.4904 16.0726 45.4904H0.445984C0.445984 45.4904 0 45.5076 0 45.1302C0 44.6499 0 42.926 0 42.4886C0 42.0769 0.343065 42.1198 0.343065 42.1198C0.343065 42.1198 1.26934 42.1198 1.65529 42.1198C2.02408 42.1198 2.02408 41.7339 2.02408 41.7339C2.02408 41.7339 2.02408 15.1806 2.02408 14.8719C2.02408 14.5031 1.68959 14.6317 1.68959 14.6317L0.274452 14.9834C0.274452 14.9834 0 15.1206 0 14.7346C0 14.3573 0 12.2388 0 11.9129C0 11.6128 0.240145 11.6213 0.240145 11.6213L12.3246 8.50801C12.3246 8.50801 12.5991 8.40509 12.5991 8.71385C12.5991 9.06549 12.5991 10.5407 12.5991 10.8151C12.6076 11.081 12.8821 10.9523 12.8821 10.9523Z" fill="#231F20"/>
<path d="M198.54 61.9747C198.926 62.3607 199.123 62.8324 199.123 63.3899C199.123 63.9473 198.935 64.419 198.54 64.805C198.154 65.1995 197.683 65.3968 197.125 65.3968C196.568 65.3968 196.096 65.1995 195.719 64.805C195.333 64.4105 195.135 63.9473 195.135 63.3899C195.135 62.8324 195.324 62.3607 195.719 61.9747C196.105 61.5888 196.576 61.3915 197.125 61.3915C197.674 61.3915 198.163 61.5888 198.54 61.9747ZM198.772 61.7431C198.317 61.2971 197.768 61.0742 197.125 61.0742C196.482 61.0742 195.942 61.2971 195.496 61.7431C195.041 62.1977 194.809 62.7466 194.809 63.3899C194.809 64.0331 195.041 64.582 195.487 65.0366C195.942 65.4911 196.49 65.7227 197.125 65.7227C197.76 65.7227 198.317 65.4911 198.772 65.0366C199.226 64.582 199.458 64.0331 199.458 63.3899C199.458 62.7552 199.226 62.2063 198.772 61.7431ZM197.468 63.2869C197.382 63.3212 197.237 63.3384 197.039 63.3384H196.636V62.4121H197.022C197.271 62.4121 197.451 62.4464 197.563 62.5065C197.674 62.5751 197.725 62.6951 197.725 62.8752C197.734 63.0811 197.648 63.2097 197.468 63.2869ZM196.19 64.6592H196.636V63.6557H196.996C197.237 63.6557 197.4 63.6815 197.494 63.7415C197.657 63.8358 197.734 64.0331 197.734 64.3247V64.5391L197.743 64.6077C197.751 64.6249 197.751 64.6335 197.751 64.642C197.751 64.6506 197.751 64.6592 197.76 64.6592H198.18L198.163 64.6335C198.163 64.6077 198.146 64.5648 198.137 64.4962C198.129 64.4362 198.129 64.3676 198.129 64.3075V64.1189C198.129 63.9902 198.086 63.8616 197.991 63.7243C197.897 63.5871 197.743 63.5099 197.554 63.4756C197.708 63.4499 197.828 63.407 197.923 63.347C198.094 63.244 198.171 63.0725 198.171 62.8409C198.171 62.5236 198.043 62.3092 197.777 62.1977C197.623 62.1377 197.4 62.1119 197.074 62.1119H196.19V64.6592Z" fill="#231F20"/>
</g>
<defs>
<clipPath id="clip0">
<rect width="250" height="75.9546" fill="white"/>
</clipPath>
</defs>
</svg>
